# xmcd
#
# Track frame offsets: 
#        150
#        25059
#        46577
#        69036
#        93294
#        116657
#        138580
#        158943
#        181895
#        207085
#        227482
#
# Disc length: 3392 seconds
#
# Revision: 2
# Processed by: cddbd v1.5.2PL0 Copyright (c) Steve Scherf et al.
# Submitted via: ExactAudioCopy v1.1
#
DISCID=810d3e0b
DTITLE=The Manhattans - ... Even Now ...
DYEAR=2001
DGENRE=Blues
TTITLE0=Love Me Right
TTITLE1=Turn Out The Stars
TTITLE2=Nights Like This
TTITLE3=Even Now
TTITLE4=Everyday People
TTITLE5=Peggi Blu and The Manhattans - Let's Try Love
TTITLE6=Any Other Way
TTITLE7=How Much More?
TTITLE8=I Got It Right
TTITLE9=Lover's Lullaby
TTITLE10=Can You Take It
EXTD=YEAR: 2001 ID3G: 0
EXTT0=
EXTT1=
EXTT2=
EXTT3=
EXTT4=
EXTT5=
EXTT6=
EXTT7=
EXTT8=
EXTT9=
EXTT10=
PLAYORDER=
